<svg width="24" height="24" viewBox="0 0 24 24" fill="none" xmlns="http://www.w3.org/2000/svg">
<g clip-path="url(#clip0_1716_10617)">
<path d="M12 0L24 5.14286V6.85714H22.4C22.4 7.08929 22.3146 7.29018 22.1438 7.45982C21.9729 7.62946 21.7708 7.71429 21.5375 7.71429H2.4625C2.22917 7.71429 2.02708 7.62946 1.85625 7.45982C1.68542 7.29018 1.6 7.08929 1.6 6.85714H0V5.14286L12 0ZM3.2 8.57143H6.4V18.8571H8V8.57143H11.2V18.8571H12.8V8.57143H16V18.8571H17.6V8.57143H20.8V18.8571H21.5375C21.7708 18.8571 21.9729 18.942 22.1438 19.1116C22.3146 19.2813 22.4 19.4821 22.4 19.7143V20.5714H1.6V19.7143C1.6 19.4821 1.68542 19.2813 1.85625 19.1116C2.02708 18.942 2.22917 18.8571 2.4625 18.8571H3.2V8.57143ZM23.1375 21.4286C23.3708 21.4286 23.5729 21.5134 23.7438 21.683C23.9146 21.8527 24 22.0536 24 22.2857V24H0V22.2857C0 22.0536 0.0854167 21.8527 0.25625 21.683C0.427083 21.5134 0.629167 21.4286 0.8625 21.4286H23.1375Z" fill="white"/>
</g>
<defs>
<clipPath id="clip0_1716_10617">
<rect width="24" height="24" fill="white"/>
</clipPath>
</defs>
</svg>
