<svg width="24" height="24" viewBox="0 0 24 24" fill="none" xmlns="http://www.w3.org/2000/svg">
<g clip-path="url(#clip0_1716_10619)">
<path d="M5.14286 1.5C5.14286 0.671719 5.90893 0 6.85714 0C7.80536 0 8.57143 0.671719 8.57143 1.5V3H15.4286V1.5C15.4286 0.671719 16.1946 0 17.1429 0C18.0911 0 18.8571 0.671719 18.8571 1.5V3H21.4286C22.8482 3 24 4.00734 24 5.25V7.5H0V5.25C0 4.00734 1.15125 3 2.57143 3H5.14286V1.5ZM24 21.75C24 22.9922 22.8482 24 21.4286 24H2.57143C1.15125 24 0 22.9922 0 21.75V9H24V21.75Z" fill="white"/>
</g>
<defs>
<clipPath id="clip0_1716_10619">
<rect width="24" height="24" fill="white"/>
</clipPath>
</defs>
</svg>
