<svg width="24" height="24" viewBox="0 0 24 24" fill="none" xmlns="http://www.w3.org/2000/svg">
<path fill-rule="evenodd" clip-rule="evenodd" d="M11.9994 21.6004C14.5455 21.6004 16.9873 20.589 18.7876 18.7887C20.588 16.9883 21.5994 14.5465 21.5994 12.0004C21.5994 9.45432 20.588 7.01252 18.7876 5.21217C16.9873 3.41182 14.5455 2.40039 11.9994 2.40039C9.45333 2.40039 7.01154 3.41182 5.21119 5.21217C3.41084 7.01252 2.39941 9.45432 2.39941 12.0004C2.39941 14.5465 3.41084 16.9883 5.21119 18.7887C7.01154 20.589 9.45333 21.6004 11.9994 21.6004ZM8.39941 6.00039C8.08115 6.00039 7.77593 6.12682 7.55088 6.35187C7.32584 6.57691 7.19941 6.88213 7.19941 7.20039C7.19941 7.51865 7.32584 7.82388 7.55088 8.04892C7.77593 8.27397 8.08115 8.40039 8.39941 8.40039H9.59941C10.0207 8.40041 10.4345 8.51131 10.7994 8.72195C11.1642 8.93259 11.4672 9.23556 11.6778 9.60039H8.39941C8.08115 9.60039 7.77593 9.72682 7.55088 9.95187C7.32584 10.1769 7.19941 10.4822 7.19941 10.8004C7.19941 11.1187 7.32584 11.4239 7.55088 11.649C7.77593 11.874 8.08115 12.0004 8.39941 12.0004H11.6778C11.4672 12.3653 11.1642 12.6682 10.7994 12.8789C10.4345 13.0895 10.0207 13.2004 9.59941 13.2004H8.39941C8.16211 13.2005 7.93015 13.2709 7.73286 13.4027C7.53557 13.5346 7.3818 13.722 7.291 13.9412C7.20019 14.1605 7.17643 14.4017 7.22271 14.6345C7.26899 14.8672 7.38324 15.081 7.55101 15.2488L11.151 18.8488C11.3773 19.0674 11.6804 19.1884 11.9951 19.1856C12.3097 19.1829 12.6107 19.0567 12.8332 18.8342C13.0557 18.6117 13.1819 18.3107 13.1846 17.9961C13.1873 17.6815 13.0664 17.3783 12.8478 17.152L11.0682 15.3712C11.8392 15.1227 12.535 14.6833 13.0909 14.0941C13.6469 13.5048 14.0449 12.7846 14.2482 12.0004H15.5994C15.9177 12.0004 16.2229 11.874 16.4479 11.649C16.673 11.4239 16.7994 11.1187 16.7994 10.8004C16.7994 10.4822 16.673 10.1769 16.4479 9.95187C16.2229 9.72682 15.9177 9.60039 15.5994 9.60039H14.2482C14.1396 9.17987 13.9741 8.77614 13.7562 8.40039H15.5994C15.9177 8.40039 16.2229 8.27397 16.4479 8.04892C16.673 7.82388 16.7994 7.51865 16.7994 7.20039C16.7994 6.88213 16.673 6.57691 16.4479 6.35187C16.2229 6.12682 15.9177 6.00039 15.5994 6.00039H8.39941Z" fill="white"/>
</svg>
