<svg width="24" height="24" viewBox="0 0 24 24" fill="none" xmlns="http://www.w3.org/2000/svg">
<path d="M1 3.5C1 2.67157 1.67157 2 2.5 2H9.97619C10.8046 2 11.4762 2.67157 11.4762 3.5V19.8095H2.5C1.67157 19.8095 1 19.1379 1 18.3095V3.5Z" fill="white"/>
<path d="M22.9996 3.5C22.9996 2.67157 22.328 2 21.4996 2H14.0234C13.195 2 12.5234 2.67157 12.5234 3.5V19.8095H21.4996C22.328 19.8095 22.9996 19.1379 22.9996 18.3095V3.5Z" fill="white"/>
<path d="M20.1715 6.19141H15.3525C14.9475 6.19141 14.6191 6.51973 14.6191 6.92474V6.92474C14.6191 7.32975 14.9475 7.65808 15.3525 7.65808H20.1715C20.5765 7.65808 20.9049 7.32975 20.9049 6.92474V6.92474C20.9049 6.51973 20.5765 6.19141 20.1715 6.19141Z" fill="#E9E9E9"/>
<path d="M11.4767 21.0676V19.8105H9.90527C10.7433 19.8105 11.3021 20.6486 11.4767 21.0676Z" fill="white"/>
<path d="M12.5234 21.0676V19.8105H14.0949C13.2568 19.8105 12.698 20.6486 12.5234 21.0676Z" fill="white"/>
<path d="M18.0763 9.96094H15.3525C14.9475 9.96094 14.6191 10.2893 14.6191 10.6943V10.6943C14.6191 11.0993 14.9475 11.4276 15.3525 11.4276H18.0763C18.4813 11.4276 18.8096 11.0993 18.8096 10.6943V10.6943C18.8096 10.2893 18.4813 9.96094 18.0763 9.96094Z" fill="#E9E9E9"/>
<path d="M20.1715 14.1523H15.3525C14.9475 14.1523 14.6191 14.4807 14.6191 14.8857V14.8857C14.6191 15.2907 14.9475 15.619 15.3525 15.619H20.1715C20.5765 15.619 20.9049 15.2907 20.9049 14.8857V14.8857C20.9049 14.4807 20.5765 14.1523 20.1715 14.1523Z" fill="#E9E9E9"/>
<path d="M8.56913 8.10846C8.56913 8.84312 8.29276 9.45998 8.04395 9.95904C7.79515 10.4581 7.23153 10.8014 6.81685 10.9888L7.2587 17.2284C7.26743 17.3601 7.23251 17.4741 7.15394 17.5704C7.07537 17.6666 6.97934 17.7148 6.86584 17.7148H5.6087C5.49521 17.7148 5.39918 17.6666 5.32061 17.5704C5.24203 17.4741 5.20711 17.3601 5.21584 17.2284L5.65195 10.9888C5.23727 10.8014 4.72159 10.4581 4.47278 9.95904C4.22397 9.45998 3.94922 8.84312 3.94922 8.10846C3.94922 7.45993 3.95642 6.80654 4.14194 6.19094C4.32746 5.57535 4.64335 5.09003 4.97074 4.6923C5.29812 4.29457 5.86624 4.0957 6.23727 4.0957C6.6083 4.0957 7.13616 4.29457 7.46354 4.6923C7.79092 5.09003 8.14703 5.57535 8.33254 6.19094C8.51806 6.80654 8.56913 7.45993 8.56913 8.10846Z" fill="#E9E9E9"/>
</svg>
