<svg width="24" height="24" viewBox="0 0 24 24" fill="none" xmlns="http://www.w3.org/2000/svg">
<path d="M11.9996 0C8.07538 0 4.85938 3.2064 4.85938 7.11984C4.85938 8.63616 5.3437 10.0454 6.1633 11.2037L11.1282 19.7868C11.8234 20.6952 12.2857 20.5226 12.8638 19.7388L18.3402 10.4196C18.4506 10.2194 18.5374 10.0063 18.613 9.78864C18.9606 8.94179 19.1393 8.03521 19.1391 7.11984C19.1394 3.2064 15.9243 0 11.9996 0ZM11.9996 3.336C14.113 3.336 15.7935 5.01264 15.7935 7.11984C15.7935 9.22704 14.113 10.903 11.9996 10.903C9.88642 10.903 8.20521 9.22728 8.20521 7.11984C8.20521 5.01264 9.88642 3.33624 11.9996 3.33624V3.336Z" fill="white"/>
<path d="M16.5385 11.7383L16.527 11.7686C16.5306 11.7594 16.5335 11.7501 16.5371 11.741L16.5385 11.7383ZM8.16085 16.5741C4.77061 17.0531 2.39941 18.1991 2.39941 19.8861C2.39941 22.1584 6.36133 24.0004 11.9994 24.0004C17.6375 24.0004 21.5994 22.1584 21.5994 19.8861C21.5994 18.1991 19.2284 17.0531 15.8384 16.5741L15.3688 17.3738C17.9238 17.7282 19.6794 18.4732 19.6794 19.3377C19.6794 20.5497 16.2409 21.532 11.9994 21.532C7.75789 21.532 4.31941 20.5497 4.31941 19.3377C4.31917 18.4761 6.06325 17.7318 8.62621 17.3759C8.47141 17.1086 8.31565 16.8417 8.16061 16.5741H8.16085Z" fill="white"/>
</svg>
