<svg width="24" height="24" viewBox="0 0 24 24" fill="none" xmlns="http://www.w3.org/2000/svg">
<g clip-path="url(#clip0_1716_10599)">
<path d="M19.5 4.5C20.2956 4.5 21.0587 4.81607 21.6213 5.37868C22.1839 5.94129 22.5 6.70435 22.5 7.5V9H1.5V7.5C1.5 6.70435 1.81607 5.94129 2.37868 5.37868C2.94129 4.81607 3.70435 4.5 4.5 4.5H19.5ZM22.5 16.5V10.5H1.5V16.5C1.5 17.2956 1.81607 18.0587 2.37868 18.6213C2.94129 19.1839 3.70435 19.5 4.5 19.5H19.5C20.2956 19.5 21.0587 19.1839 21.6213 18.6213C22.1839 18.0587 22.5 17.2956 22.5 16.5ZM8.25 15C8.44891 15 8.63968 15.079 8.78033 15.2197C8.92098 15.3603 9 15.5511 9 15.75C9 15.9489 8.92098 16.1397 8.78033 16.2803C8.63968 16.421 8.44891 16.5 8.25 16.5H5.25C5.05109 16.5 4.86032 16.421 4.71967 16.2803C4.57902 16.1397 4.5 15.9489 4.5 15.75C4.5 15.5511 4.57902 15.3603 4.71967 15.2197C4.86032 15.079 5.05109 15 5.25 15H8.25Z" fill="white"/>
<path d="M16.4605 12.4523C17.4031 12.214 18.4048 12 19.0043 12C19.6038 12 20.6055 12.214 21.5481 12.4523C22.5124 12.6946 23.4846 12.9813 24.0562 13.155C24.2952 13.2284 24.5071 13.363 24.6676 13.5433C24.828 13.7236 24.9305 13.9423 24.9632 14.1743C25.481 17.7903 24.2795 20.4703 22.8217 22.2432C22.2035 23.0016 21.4664 23.6694 20.635 24.2244C20.3475 24.4165 20.0429 24.5854 19.7245 24.7292C19.4813 24.8358 19.2198 24.9231 19.0043 24.9231C18.7888 24.9231 18.5282 24.8358 18.2841 24.7292C17.9657 24.5854 17.6611 24.4165 17.3736 24.2244C16.5422 23.6694 15.8051 23.0015 15.1869 22.2432C13.7291 20.4703 12.5276 17.7903 13.0454 14.1743C13.0781 13.9423 13.1806 13.7236 13.341 13.5433C13.5015 13.363 13.7133 13.2284 13.9524 13.155C14.7822 12.902 15.6185 12.6677 16.4605 12.4523Z" fill="#E9E9E9"/>
<path d="M16.7781 13.3115C17.6029 13.1073 18.4794 12.9238 19.0039 12.9238C19.5284 12.9238 20.4049 13.1073 21.2297 13.3115C22.0735 13.5192 22.9241 13.7649 23.4243 13.9138C23.6335 13.9767 23.8189 14.092 23.9593 14.2466C24.0996 14.4011 24.1893 14.5886 24.218 14.7875C24.671 17.8869 23.6197 20.184 22.3441 21.7036C21.8032 22.3537 21.1582 22.9262 20.4307 23.4019C20.1792 23.5665 19.9127 23.7112 19.6341 23.8346C19.4212 23.9259 19.1924 24.0007 19.0039 24.0007C18.8154 24.0007 18.5873 23.9259 18.3737 23.8346C18.0951 23.7112 17.8286 23.5665 17.577 23.4019C16.8495 22.9261 16.2046 22.3537 15.6636 21.7036C14.3881 20.184 13.3367 17.8869 13.7898 14.7875C13.8184 14.5886 13.9081 14.4011 14.0485 14.2466C14.1889 14.092 14.3743 13.9767 14.5834 13.9138C15.3095 13.697 16.0413 13.4961 16.7781 13.3115Z" fill="white"/>
</g>
<defs>
<clipPath id="clip0_1716_10599">
<rect width="24" height="24" fill="white"/>
</clipPath>
</defs>
</svg>
