<svg width="24" height="24" viewBox="0 0 24 24" fill="none" xmlns="http://www.w3.org/2000/svg">
<path d="M10.5134 2.93597C10.8122 2.01353 12.1173 2.01353 12.4161 2.93597L13.8148 7.25368C13.9484 7.66613 14.3325 7.9455 14.7661 7.9455H19.2987C20.2667 7.9455 20.67 9.18358 19.8877 9.75367L16.2155 12.4297C15.8661 12.6844 15.7199 13.1348 15.8531 13.5461L17.2545 17.8723C17.5531 18.7941 16.4974 19.5593 15.7142 18.9886L12.0537 16.321C11.7027 16.0652 11.2268 16.0652 10.8758 16.321L7.21529 18.9886C6.43217 19.5593 5.37639 18.7941 5.67502 17.8723L7.07643 13.5461C7.20967 13.1348 7.06347 12.6844 6.71404 12.4297L3.04188 9.75367C2.25958 9.18358 2.66284 7.9455 3.63083 7.9455H8.16344C8.597 7.9455 8.98117 7.66613 9.11478 7.25368L10.5134 2.93597Z" fill="white"/>
</svg>
