<svg width="24" height="24" viewBox="0 0 24 24" fill="none" xmlns="http://www.w3.org/2000/svg">
<path d="M19.9996 9.82886C20.0001 9.99957 19.9625 10.1682 19.8893 10.3224C19.8161 10.4767 19.7094 10.6125 19.5768 10.7201L12.7209 16.2392C12.5164 16.4073 12.2599 16.499 11.9953 16.499C11.7306 16.499 11.4741 16.4073 11.2697 16.2392L4.41376 10.5258C4.18041 10.3319 4.03367 10.0532 4.00581 9.75107C3.97795 9.44893 4.07126 9.14809 4.26522 8.91474C4.45917 8.68139 4.73788 8.53464 5.04002 8.50679C5.34217 8.47893 5.64301 8.57224 5.87636 8.76619L12.001 13.8738L18.1256 8.93759C18.2933 8.79786 18.4976 8.7091 18.7142 8.68182C18.9308 8.65453 19.1506 8.68986 19.3478 8.78362C19.5449 8.87738 19.7111 9.02565 19.8266 9.21089C19.9421 9.39613 20.0021 9.61057 19.9996 9.82886Z" fill="black"/>
</svg>
