<svg width="24" height="24" viewBox="0 0 24 24" fill="none" xmlns="http://www.w3.org/2000/svg">
<path d="M17.4535 12.4667C18.3532 12.4667 19.1449 12.002 19.5527 11.2993L23.8471 3.944C24.291 3.196 23.7152 2.26667 22.8035 2.26667H5.05012L3.92254 0H0V2.26667H2.39911L6.71751 10.8687L5.09811 13.634C4.22243 15.1527 5.374 17 7.19733 17H21.592V14.7333H7.19733L8.51684 12.4667H17.4535ZM6.1897 4.53333H20.7643L17.4535 10.2H9.03265L6.1897 4.53333ZM7.19733 18.1333C5.87782 18.1333 4.81021 19.1533 4.81021 20.4C4.81021 21.6467 5.87782 22.6667 7.19733 22.6667C8.51684 22.6667 9.59644 21.6467 9.59644 20.4C9.59644 19.1533 8.51684 18.1333 7.19733 18.1333ZM19.1929 18.1333C17.8734 18.1333 16.8058 19.1533 16.8058 20.4C16.8058 21.6467 17.8734 22.6667 19.1929 22.6667C20.5124 22.6667 21.592 21.6467 21.592 20.4C21.592 19.1533 20.5124 18.1333 19.1929 18.1333Z" fill="black"/>
</svg>
