<svg width="24" height="24" viewBox="0 0 24 24" fill="none" xmlns="http://www.w3.org/2000/svg">
<path opacity="0.3" d="M11.7073 13.2916C12.5818 13.2916 13.2907 12.5827 13.2907 11.7083C13.2907 10.8338 12.5818 10.125 11.7073 10.125C10.8329 10.125 10.124 10.8338 10.124 11.7083C10.124 12.5827 10.8329 13.2916 11.7073 13.2916Z" fill="black"/>
<path d="M11.7073 8.54166C9.95777 8.54166 8.54069 9.95875 8.54069 11.7083C8.54069 13.4579 9.95777 14.875 11.7073 14.875C13.4569 14.875 14.874 13.4579 14.874 11.7083C14.874 9.95875 13.4569 8.54166 11.7073 8.54166ZM11.7073 13.2916C10.8365 13.2916 10.124 12.5791 10.124 11.7083C10.124 10.8375 10.8365 10.125 11.7073 10.125C12.5782 10.125 13.2907 10.8375 13.2907 11.7083C13.2907 12.5791 12.5782 13.2916 11.7073 13.2916ZM18.7848 10.9166C18.6055 9.31126 17.8856 7.81455 16.7434 6.67229C15.6011 5.53004 14.1044 4.81015 12.499 4.63083V3H10.9157V4.63083C9.31028 4.81015 7.81357 5.53004 6.67132 6.67229C5.52907 7.81455 4.80918 9.31126 4.62985 10.9166H2.99902V12.5H4.62985C4.80918 14.1054 5.52907 15.6021 6.67132 16.7443C7.81357 17.8866 9.31028 18.6065 10.9157 18.7858V20.4166H12.499V18.7858C14.1044 18.6065 15.6011 17.8866 16.7434 16.7443C17.8856 15.6021 18.6055 14.1054 18.7848 12.5H20.4157V10.9166H18.7848ZM11.7073 17.25C8.6436 17.25 6.16569 14.772 6.16569 11.7083C6.16569 8.64458 8.6436 6.16666 11.7073 6.16666C14.7711 6.16666 17.249 8.64458 17.249 11.7083C17.249 14.772 14.7711 17.25 11.7073 17.25Z" fill="black"/>
</svg>
