<svg width="24" height="24" viewBox="0 0 24 24" fill="none" xmlns="http://www.w3.org/2000/svg">
<path d="M4.10358 13.1717C4.83146 14.2568 5.84607 15.408 7.12758 16.5912C8.1891 17.5715 9.24839 18.4028 10.0549 18.9965C10.4576 19.293 10.7958 19.5291 11.0378 19.694C11.1588 19.7763 11.2555 19.8407 11.324 19.8857C11.3583 19.9082 11.3852 19.9257 11.4045 19.9382C11.4256 19.9517 11.4321 19.9559 11.4321 19.9559L11.444 19.9632L11.998 20.3186L11.9998 20.3184L12.5538 19.9632C12.6304 19.914 14.74 18.5562 16.8704 16.5909C18.1518 15.4079 19.1663 14.2567 19.8941 13.1717C20.3541 12.485 20.7072 11.8183 20.9457 11.1901L20.9463 11.1884C21.2343 10.4355 21.3726 9.71296 21.3726 9.03518V9.03305C21.3747 8.3095 21.2295 7.60726 20.9441 6.94372C20.6685 6.30604 20.2715 5.72816 19.7748 5.24245C19.2765 4.75402 18.6885 4.36528 18.0438 4.09852C17.375 3.82067 16.6565 3.67804 15.9323 3.6797L15.9305 3.67972C14.9122 3.67972 13.9201 3.95848 13.0586 4.48403C12.8524 4.60978 12.6571 4.74755 12.4725 4.89734L12 5.28056L11.5275 4.89734C11.3429 4.74755 11.1476 4.60979 10.9415 4.48405C10.08 3.95849 9.08783 3.67972 8.06954 3.67972C7.33493 3.67972 6.62657 3.82009 5.95724 4.09811C5.31003 4.36606 4.72667 4.7513 4.22558 5.24209C3.72863 5.72696 3.33062 6.30563 3.0561 6.94337C2.77052 7.607 2.625 8.31008 2.625 9.03518C2.625 9.71285 2.76335 10.4353 3.05115 11.188M4.10358 13.1717C3.64453 12.4864 3.29277 11.8187 3.05115 11.188M4.10358 13.1717L3.05115 11.188" stroke="black"/>
</svg>
