<svg width="24" height="24" viewBox="0 0 24 24" fill="none" xmlns="http://www.w3.org/2000/svg">
<path d="M19.2882 3.29688H4.82722C4.21287 3.29688 3.71484 3.76593 3.71484 4.34455V21.1075C3.71484 21.6861 4.21287 22.1552 4.82722 22.1552H19.2882C19.9025 22.1552 20.4005 21.6861 20.4005 21.1075V4.34455C20.4005 3.76593 19.9025 3.29688 19.2882 3.29688Z" stroke="black" stroke-linejoin="round"/>
<path d="M8.72175 1.19922V4.34227V1.19922ZM15.396 1.19922V4.34227V1.19922ZM7.60938 9.05684H16.5084H7.60938ZM7.60938 13.2476H14.2837H7.60938ZM7.60938 17.4383H12.0589H7.60938Z" fill="#E9E9E9"/>
<path d="M7.60938 17.4383H12.0589M8.72175 1.19922V4.34227V1.19922ZM15.396 1.19922V4.34227V1.19922ZM7.60938 9.05684H16.5084H7.60938ZM7.60938 13.2476H14.2837H7.60938Z" stroke="black" stroke-linecap="round" stroke-linejoin="round"/>
</svg>
