<svg width="24" height="24" viewBox="0 0 24 24" fill="none" xmlns="http://www.w3.org/2000/svg">
<g clip-path="url(#clip0_1741_10685)">
<path d="M15.75 5.26639C15.75 7.35093 14.0667 9.03279 12 9.03279C9.93334 9.03279 8.25 7.35093 8.25 5.26639C8.25 3.18186 9.93334 1.5 12 1.5C14.0667 1.5 15.75 3.18186 15.75 5.26639Z" stroke="black" stroke-width="3"/>
<path fill-rule="evenodd" clip-rule="evenodd" d="M3.04056 19.4422C6.53906 16.6486 13.9469 13.595 20.9367 19.4119C20.9613 19.4324 21 19.4874 21 19.5779C21 19.5894 20.9993 19.6008 20.998 19.612C20.9993 19.62 21 19.6282 21 19.6365V20.9912H3V19.6365C3 19.6282 3.00068 19.62 3.00199 19.612C3.00068 19.6008 3 19.5894 3 19.5779C3 19.5297 3.01008 19.4939 3.01993 19.4722C3.02904 19.4521 3.0372 19.4449 3.04056 19.4422ZM22.8557 17.1059C14.2851 9.97347 5.19658 13.8815 1.16859 17.0979C0.378151 17.7291 0 18.6667 0 19.5779C0 21.3945 1.47269 22.8672 3.28936 22.8672H20.7106C22.5273 22.8672 24 21.3945 24 19.5779C24 18.6556 23.6095 17.7333 22.8557 17.1059Z" fill="black"/>
<path fill-rule="evenodd" clip-rule="evenodd" d="M0 19.4863H3V20.9907H21V19.4863H24V20.9907V22.4957V24.0001H0V22.4957V20.9907V19.4863Z" fill="black"/>
</g>
<defs>
<clipPath id="clip0_1741_10685">
<rect width="24" height="24" fill="white"/>
</clipPath>
</defs>
</svg>
