<svg width="24" height="24" viewBox="0 0 24 24" fill="none" xmlns="http://www.w3.org/2000/svg">
<path d="M11.9954 4.00001C10.4986 3.99796 9.03132 4.41583 7.76024 5.20613C6.48916 5.99643 5.46528 7.12747 4.80498 8.47067C4.14467 9.81388 3.87442 11.3154 4.02494 12.8045C4.17546 14.2937 4.74072 15.7107 5.65647 16.8946C6.57222 18.0785 7.80172 18.9818 9.20524 19.5018C10.6088 20.0217 12.13 20.1375 13.596 19.836C15.0621 19.5344 16.4142 18.8277 17.4985 17.796C18.5829 16.7644 19.3562 15.4492 19.7304 14H17.6494C17.2827 15.0372 16.6378 15.9536 15.7854 16.6491C14.933 17.3445 13.9058 17.7922 12.8161 17.9432C11.7264 18.0942 10.6162 17.9427 9.60675 17.5053C8.59734 17.0679 7.72763 16.3613 7.09269 15.4629C6.45775 14.5646 6.08203 13.5089 6.00661 12.4114C5.93119 11.3138 6.15896 10.2167 6.66503 9.2399C7.17111 8.2631 7.93599 7.44424 8.87607 6.87283C9.81615 6.30143 10.8952 5.99948 11.9954 6.00001C12.7822 6.00116 13.561 6.15917 14.2861 6.4648C15.0112 6.77043 15.6681 7.21754 16.2184 7.78001L13.0004 11H20.0004V4.00001L17.6494 6.35001C16.9085 5.60469 16.0276 5.01333 15.0572 4.61001C14.0868 4.20668 13.0462 3.99937 11.9954 4.00001Z" fill="black"/>
</svg>
