<svg width="24" height="24" viewBox="0 0 24 24" fill="none" xmlns="http://www.w3.org/2000/svg">
<g clip-path="url(#clip0_1741_10692)">
<path d="M23.7805 22.7119L16.493 15.3799C17.8513 13.7531 18.6699 11.6602 18.6699 9.375C18.6699 4.19737 14.4725 0 9.29492 0C4.1173 0 -0.0800781 4.19737 -0.0800781 9.375C-0.0800781 14.5526 4.1173 18.75 9.29492 18.75C11.6473 18.75 13.796 17.8815 15.4423 16.4497L22.7195 23.7727C23.0124 24.0656 23.4876 24.0656 23.7804 23.7727C24.0729 23.4799 24.0729 23.0051 23.7804 22.7119H23.7805ZM9.29492 17.2624C4.93892 17.2624 1.40755 13.731 1.40755 9.375C1.40755 5.019 4.93892 1.48763 9.29492 1.48763C13.6509 1.48763 17.1823 5.019 17.1823 9.375C17.1823 13.731 13.6509 17.2624 9.29492 17.2624Z" fill="black"/>
</g>
<defs>
<clipPath id="clip0_1741_10692">
<rect width="24" height="24" fill="white"/>
</clipPath>
</defs>
</svg>
