<svg width="24" height="24" viewBox="0 0 24 24" fill="none" xmlns="http://www.w3.org/2000/svg">
<path fill-rule="evenodd" clip-rule="evenodd" d="M13.2721 2.33081L14.7567 6.90011H18.0835C18.0854 6.89887 18.0873 6.89764 18.0892 6.8964H21.7884C21.7864 6.89764 21.7843 6.89887 21.7822 6.90011H21.7825C21.0169 7.36023 20.2629 7.8277 19.5793 8.25975C18.7046 8.8126 17.9457 9.30719 17.4258 9.65379H17.4281C11.2717 13.5764 5.7082 20.0777 3.06766 23.8322C4.54623 20.749 7.25384 16.497 11.2845 12.4594C12.956 10.8853 14.5821 9.49923 16.0587 8.32866H13.7063L13.3867 7.34526L12.5148 4.66163L11.6428 7.34526L11.3194 8.34063H10.2728H7.45105L9.73388 9.99921L10.5067 10.5607L7.25138 16.199L7.40251 15.7339L8.88716 11.1646L5.00029 8.34063L3.01758 6.90011H5.46834H10.2728L11.7574 2.33081L12.5148 0L13.2721 2.33081ZM13.3339 14.3954L16.4016 16.6242L18.3843 18.0647L17.627 15.7339L16.4553 12.1276L15.2299 13.0179L15.6443 14.2934L14.5593 13.5051L13.3339 14.3954ZM3.03808 23.9998L3 23.9743L3.02319 23.9254L3.03808 23.9998Z" fill="black"/>
</svg>
