<svg width="24" height="24" viewBox="0 0 24 24" fill="none" xmlns="http://www.w3.org/2000/svg">
<path d="M8.79033 6.02904L9.1198 5.92199L8.79033 6.02904ZM9.8301 9.22912L10.1596 9.12209V9.12207L9.8301 9.22912ZM13.2101 9.25387L13.4137 9.53413L13.2101 9.25387ZM10.4879 11.2316L10.2843 10.9514L10.4879 11.2316ZM10.4843 11.2427L10.1549 11.3498L10.4843 11.2427ZM11.5241 14.4428L11.1946 14.5498L11.5241 14.4428ZM11.5089 14.4539L11.3053 14.7341L11.5089 14.4539ZM8.78478 12.4747L8.58115 12.7549L8.78478 12.4747ZM7.73173 9.22912L7.40226 9.12207L7.40225 9.12209L7.73173 9.22912ZM8.7715 6.02904L8.44203 5.92199L8.7715 6.02904ZM8.77643 12.4731L8.68338 12.1394L8.77643 12.4731ZM6.43648 16.5319L6.13917 16.7097L6.13919 16.7098L6.43648 16.5319ZM8.46086 6.1361L9.50062 9.33617L10.1596 9.12207L9.1198 5.92199L8.46086 6.1361ZM9.83951 9.58238H13.2043V8.88953H9.83951V9.58238ZM13.0065 8.9736L10.2843 10.9514L10.6916 11.5119L13.4137 9.53413L13.0065 8.9736ZM10.1549 11.3498L11.1946 14.5498L11.8536 14.3357L10.8138 11.1357L10.1549 11.3498ZM11.7125 14.1736L8.98841 12.1944L8.58115 12.7549L11.3053 14.7341L11.7125 14.1736ZM2.81543 9.58238H7.72232V8.88953H2.81543V9.58238ZM8.06121 9.33617L9.10098 6.1361L8.44203 5.92199L7.40226 9.12207L8.06121 9.33617ZM8.68338 12.1394C7.96601 12.3395 6.95984 12.796 6.3094 13.5416C5.97922 13.9201 5.73214 14.3836 5.67606 14.9305C5.61983 15.4789 5.7594 16.0748 6.13917 16.7097L6.73379 16.3541C6.41504 15.8212 6.32715 15.3733 6.3653 15.0012C6.40361 14.6276 6.57278 14.2937 6.83152 13.9971C7.3589 13.3925 8.22123 12.9876 8.86948 12.8068L8.68338 12.1394ZM6.44506 16.8833H22.2446V16.1905H6.44506V16.8833ZM6.13919 16.7098C6.20015 16.8117 6.3133 16.8833 6.44506 16.8833V16.1905C6.56986 16.1905 6.67638 16.2581 6.73377 16.3541L6.13919 16.7098ZM7.72232 9.58238C7.87668 9.58238 8.01352 9.483 8.06122 9.33615L7.40225 9.12209C7.4473 8.9834 7.57654 8.88953 7.72232 8.88953V9.58238ZM8.98841 12.1944C8.90426 12.1333 8.79265 12.109 8.68338 12.1394L8.86947 12.8068C8.76602 12.8357 8.66042 12.8125 8.58115 12.7549L8.98841 12.1944ZM11.1946 14.5498C11.0939 14.2398 11.4488 13.982 11.7125 14.1736L11.3053 14.7341C11.5845 14.937 11.9603 14.6641 11.8536 14.3357L11.1946 14.5498ZM10.2843 10.9514C10.1594 11.0421 10.1072 11.203 10.1549 11.3498L10.8138 11.1357C10.8589 11.2743 10.8095 11.4262 10.6916 11.5119L10.2843 10.9514ZM13.2043 9.58238C12.8783 9.58238 12.7427 9.16525 13.0065 8.9736L13.4137 9.53413C13.693 9.33121 13.5494 8.88953 13.2043 8.88953V9.58238ZM9.50061 9.33615C9.54831 9.483 9.68515 9.58238 9.83951 9.58238V8.88953C9.98529 8.88953 10.1145 8.9834 10.1596 9.12209L9.50061 9.33615ZM9.1198 5.92199C9.01313 5.59371 8.5487 5.59371 8.44203 5.92199L9.10097 6.13611C9.00023 6.44616 8.5616 6.44615 8.46086 6.13611L9.1198 5.92199Z" fill="black"/>
<path d="M20.7246 15.7472L21.6624 14.8095C22.0489 14.4229 22.6756 14.4229 23.0621 14.8095L23.9999 15.7472L22.3623 17.3848L20.7246 15.7472Z" fill="#E9E9E9"/>
<path d="M2.48346 7.5127L0 9.99615L2.48346 12.4797L4.96692 9.99615L2.48346 7.5127Z" fill="#E9E9E9"/>
</svg>
