<svg width="24" height="24" viewBox="0 0 24 24" fill="none" xmlns="http://www.w3.org/2000/svg">
<path d="M20.5317 6.50066C20.6155 6.50066 20.6958 6.46905 20.755 6.41279C20.8142 6.35653 20.8475 6.28022 20.8475 6.20066V5.20166C20.8472 4.9411 20.7381 4.69131 20.5441 4.50706C20.3502 4.32282 20.0872 4.21917 19.813 4.21886H18.1159L17.7288 3.13346C17.7024 3.05964 17.6469 2.99845 17.574 2.96284C17.501 2.92723 17.4163 2.91999 17.3378 2.94266L8.14645 5.59706C8.07037 5.62342 8.00783 5.6765 7.97171 5.74535C7.93558 5.8142 7.92862 5.89359 7.95225 5.96718C7.97588 6.04076 8.02832 6.10293 8.09875 6.1409C8.16918 6.17886 8.25226 6.18973 8.33087 6.17126L17.2292 3.60086L18.0774 5.97986C18.1043 6.05521 18.1616 6.11732 18.2367 6.15254C18.3118 6.18776 18.3985 6.1932 18.4778 6.16766C18.5571 6.14212 18.6225 6.08769 18.6596 6.01635C18.6967 5.94501 18.7024 5.86261 18.6755 5.78726L18.33 4.81826H19.8136C20.0359 4.81826 20.2166 4.98986 20.2166 5.20106V6.20066C20.2159 6.36626 20.3574 6.50066 20.5317 6.50066Z" fill="black"/>
<path d="M23.0526 11.0008C22.9689 11.0008 22.8886 11.0324 22.8293 11.0886C22.7701 11.1449 22.7368 11.2212 22.7368 11.3008C22.7368 11.3803 22.7701 11.4566 22.8293 11.5129C22.8886 11.5692 22.9689 11.6008 23.0526 11.6008C23.2743 11.6008 23.3684 11.6902 23.3684 11.9008V15.5008C23.3684 15.7114 23.2743 15.8008 23.0526 15.8008H18C17.7783 15.8008 17.6842 15.7114 17.6842 15.5008V12.5008C17.6842 12.2902 17.7783 12.2008 18 12.2008H21.7895C21.8732 12.2008 21.9535 12.1692 22.0128 12.1129C22.072 12.0566 22.1053 11.9803 22.1053 11.9008V8.30076C22.1053 7.75416 21.7333 7.40076 21.1579 7.40076H1.89474C1.116 7.40076 0.631579 6.94056 0.631579 6.20076C0.631579 5.46096 1.116 5.00076 1.89474 5.00076H5.10063L3.18947 5.59956C3.14866 5.61075 3.11064 5.62963 3.07769 5.6551C3.04474 5.68056 3.01754 5.71208 2.99771 5.74776C2.97788 5.78345 2.96583 5.82257 2.96229 5.86278C2.95874 5.90299 2.96377 5.94346 2.97708 5.98179C2.99038 6.02011 3.01169 6.05548 3.03972 6.0858C3.06775 6.11612 3.10193 6.14075 3.14021 6.15823C3.1785 6.1757 3.2201 6.18566 3.26253 6.1875C3.30497 6.18935 3.34735 6.18304 3.38716 6.16896L14.8307 2.58516C14.8701 2.57279 14.9066 2.55317 14.938 2.52742C14.9694 2.50167 14.9952 2.47029 15.0138 2.43508C15.0325 2.39987 15.0436 2.36151 15.0467 2.3222C15.0497 2.28289 15.0446 2.24339 15.0316 2.20596C15.0186 2.16854 14.9979 2.13391 14.9708 2.10407C14.9437 2.07423 14.9107 2.04975 14.8736 2.03203C14.8365 2.01431 14.7962 2.0037 14.7548 2.00081C14.7134 1.99792 14.6718 2.00279 14.6324 2.01516L6.99032 4.40916C6.97579 4.40676 6.96253 4.40076 6.94737 4.40076H1.89474C0.761684 4.40076 0 5.12436 0 6.20076V19.4008C0 20.4772 0.761684 21.2008 1.89474 21.2008H21.1579C21.7333 21.2008 22.1053 20.8474 22.1053 20.3008V17.3008C22.1053 17.2212 22.072 17.1449 22.0128 17.0886C21.9535 17.0324 21.8732 17.0008 21.7895 17.0008C21.7057 17.0008 21.6254 17.0324 21.5662 17.0886C21.507 17.1449 21.4737 17.2212 21.4737 17.3008V20.3008C21.4737 20.5114 21.3796 20.6008 21.1579 20.6008H1.89474C1.116 20.6008 0.631579 20.1406 0.631579 19.4008V7.58796C0.955579 7.84776 1.38442 8.00076 1.89474 8.00076H21.1579C21.3796 8.00076 21.4737 8.09016 21.4737 8.30076V11.6008H18C17.4246 11.6008 17.0526 11.9542 17.0526 12.5008V15.5008C17.0526 16.0474 17.4246 16.4008 18 16.4008H23.0526C23.628 16.4008 24 16.0474 24 15.5008V11.9008C24 11.3542 23.628 11.0008 23.0526 11.0008Z" fill="black"/>
<path d="M20.2107 14.6023C20.5595 14.6023 20.8423 14.3336 20.8423 14.0023C20.8423 13.6709 20.5595 13.4023 20.2107 13.4023C19.8619 13.4023 19.5791 13.6709 19.5791 14.0023C19.5791 14.3336 19.8619 14.6023 20.2107 14.6023Z" fill="black"/>
</svg>
